<?xml version="1.0" encoding="UTF-8" standalone="no"?>
<!-- Created with Inkscape (http://www.inkscape.org/) -->

<svg
   version="1.1"
   id="svg1"
   width="305.72568"
   height="305.72568"
   viewBox="0 0 305.72568 305.72568"
   sodipodi:docname="halterofilia.svg"
   inkscape:version="1.3.2 (091e20e, 2023-11-25, custom)"
   xmlns:inkscape="http://www.inkscape.org/namespaces/inkscape"
   xmlns:sodipodi="http://sodipodi.sourceforge.net/DTD/sodipodi-0.dtd"
   xmlns="http://www.w3.org/2000/svg"
   xmlns:svg="http://www.w3.org/2000/svg">
  <sodipodi:namedview
     id="namedview1"
     pagecolor="#ffffff"
     bordercolor="#000000"
     borderopacity="0.25"
     inkscape:showpageshadow="2"
     inkscape:pageopacity="0.0"
     inkscape:pagecheckerboard="0"
     inkscape:deskcolor="#d1d1d1"
     inkscape:zoom="2"
     inkscape:cx="5"
     inkscape:cy="191.25"
     inkscape:window-width="1920"
     inkscape:window-height="974"
     inkscape:window-x="-11"
     inkscape:window-y="-11"
     inkscape:window-maximized="1"
     inkscape:current-layer="svg1" />
  <defs
     id="defs1" />
  <g
     id="g1"
     style="display:inline"
     transform="rotate(180,265.75833,184.61532)">
    <path
       id="path2"
       style="display:inline;opacity:1;fill:#000000"
       d="m 236.36104,61.428059 -8.83469,8.978323 20.31137,20.311366 -4.59758,4.597575 2.8229,2.822903 18.24667,-18.24667 -3.00382,-3.003823 -4.74259,4.742588 z m -3.42919,8.994895 0.23064,-0.178157 3.45681,-3.456813 17.63762,17.637618 -3.66121,3.661211 z" />
    <path
       id="path4"
       style="display:inline;opacity:1;fill:#000000"
       d="m 227.45453,122.61351 9.84702,9.84702 61.54729,-61.547297 -9.84701,-9.847014 z m 12.96133,12.96132 9.41336,9.41336 61.54729,-61.547289 -9.41336,-9.413359 z m 12.5981,12.59811 9.55837,9.55837 61.54729,-61.547296 -9.55837,-9.558371 z" />
    <path
       id="path2-8"
       style="display:inline;fill:#000000"
       d="m 495.89271,347.96513 3.0052,3.0052 4.74259,-4.74259 20.20226,20.20227 8.83469,-8.97833 -20.31136,-20.31136 4.59757,-4.59758 -2.82428,-2.82428 z m 10.05279,-4.53405 3.66121,-3.66121 17.66524,17.66524 -0.23064,0.17816 -3.45681,3.45681 z" />
    <path
       id="path4-5"
       style="display:inline;fill:#000000"
       d="m 436.08418,331.67405 9.55699,9.55699 61.54729,-61.54729 -9.55699,-9.55699 z m 12.74311,12.74311 9.41336,9.41336 61.5473,-61.54729 -9.41336,-9.41336 z m 12.52767,12.52767 9.84702,9.84702 61.54729,-61.5473 -9.84702,-9.84701 z" />
    <path
       id="path7"
       style="display:inline;opacity:1;fill:#000000"
       d="m 451.48645,304.35969 0.43503,0.14501 3.40296,3.40295 18.60989,-18.60989 -3.69298,-3.69297 -4.63486,4.63486 -79.12967,-79.12967 -2.82014,2.82014 79.84506,79.84507 -3.70541,3.7054 -79.7981,-79.89202 -2.64475,2.64475 79.12967,79.12967 z m -161.83216,-162.26858 4.77849,-4.77849 79.25811,79.25811 2.64751,-2.64751 -79.22634,-79.32026 3.60873,-3.60873 79.2733,79.2733 2.82014,-2.82014 -79.25811,-79.25811 4.63486,-4.63486 -3.11292,-3.11293 -18.6099,18.4635 z" />
  </g>
  <g
     id="g24"
     style="display:inline"
     transform="rotate(-90,236.44462,298.95888)">
    <path
       id="path20"
       style="display:inline;opacity:1;fill:#000000"
       d="m 236.36104,61.428059 -8.83469,8.978323 20.31137,20.311366 -4.59758,4.597575 2.8229,2.822903 18.24667,-18.24667 -3.00382,-3.003823 -4.74259,4.742588 z m -3.42919,8.994895 0.23064,-0.178157 3.45681,-3.456813 17.63762,17.637618 -3.66121,3.661211 z" />
    <path
       id="path21"
       style="display:inline;opacity:1;fill:#000000"
       d="m 227.45453,122.61351 9.84702,9.84702 61.54729,-61.547297 -9.84701,-9.847014 z m 12.96133,12.96132 9.41336,9.41336 61.54729,-61.547289 -9.41336,-9.413359 z m 12.5981,12.59811 9.55837,9.55837 61.54729,-61.547296 -9.55837,-9.558371 z" />
    <path
       id="path22"
       style="display:inline;fill:#000000"
       d="m 495.89271,347.96513 3.0052,3.0052 4.74259,-4.74259 20.20226,20.20227 8.83469,-8.97833 -20.31136,-20.31136 4.59757,-4.59758 -2.82428,-2.82428 z m 10.05279,-4.53405 3.66121,-3.66121 17.66524,17.66524 -0.23064,0.17816 -3.45681,3.45681 z" />
    <path
       id="path23"
       style="display:inline;fill:#000000"
       d="m 436.08418,331.67405 9.55699,9.55699 61.54729,-61.54729 -9.55699,-9.55699 z m 12.74311,12.74311 9.41336,9.41336 61.5473,-61.54729 -9.41336,-9.41336 z m 12.52767,12.52767 9.84702,9.84702 61.54729,-61.5473 -9.84702,-9.84701 z" />
    <path
       id="path24"
       style="display:inline;opacity:1;fill:#000000"
       d="m 473.93412,289.29813 -3.69297,-3.69298 -4.63487,4.63486 -79.02471,-79.0247 -2.82014,2.82014 79.7401,79.7401 -3.7054,3.7054 -79.69315,-79.78705 -2.64474,2.64474 79.02471,79.02471 -4.99671,4.9967 0.43504,0.14501 3.40295,3.40296 z m -91.01514,-81.74541 -79.36307,-79.36307 4.63487,-4.63487 -3.11293,-3.11292 -18.60989,18.46349 3.18612,3.18613 4.7785,-4.7785 79.36307,79.36307 2.6475,-2.64751 -79.3313,-79.42521 3.60873,-3.60873 79.37826,79.37826 z" />
  </g>
</svg>
