<?xml version="1.0" encoding="UTF-8" standalone="no"?>
<!-- Created with Inkscape (http://www.inkscape.org/) -->

<svg
   width="180.59311mm"
   height="169.40401mm"
   viewBox="0 0 180.59311 169.40401"
   version="1.1"
   id="svg1"
   sodipodi:docname="logo_tsunami.svg"
   inkscape:version="1.3.2 (091e20e, 2023-11-25, custom)"
   xmlns:inkscape="http://www.inkscape.org/namespaces/inkscape"
   xmlns:sodipodi="http://sodipodi.sourceforge.net/DTD/sodipodi-0.dtd"
   xmlns="http://www.w3.org/2000/svg"
   xmlns:svg="http://www.w3.org/2000/svg">
  <sodipodi:namedview
     id="namedview1"
     pagecolor="#ffffff"
     bordercolor="#000000"
     borderopacity="0.25"
     inkscape:showpageshadow="2"
     inkscape:pageopacity="0.0"
     inkscape:pagecheckerboard="0"
     inkscape:deskcolor="#d1d1d1"
     inkscape:document-units="mm"
     inkscape:zoom="1.1542058"
     inkscape:cx="340.92708"
     inkscape:cy="320.13356"
     inkscape:window-width="1920"
     inkscape:window-height="974"
     inkscape:window-x="-11"
     inkscape:window-y="-11"
     inkscape:window-maximized="1"
     inkscape:current-layer="layer1" />
  <defs
     id="defs1">
    <rect
       x="100.2521"
       y="483.03284"
       width="200.96642"
       height="27.762423"
       id="rect1" />
  </defs>
  <g
     inkscape:label="Capa 1"
     inkscape:groupmode="layer"
     id="layer1"
     transform="matrix(0.83879378,0,0,0.83879378,0.10419533,-30.471716)">
    <path
       d="m 180.92539,126.38195 c -1.40023,0.0321 -2.64016,0.86041 -3.7207,2.48564 -1.15088,1.75353 -1.72651,3.95618 -1.72651,6.60786 0,1.35792 0.16278,2.64648 0.48886,3.8654 0.39002,1.44345 0.96223,2.62495 1.71669,3.54449 0.96545,1.19753 2.05288,1.79627 3.2613,1.79627 0.72249,0 1.41606,-0.23012 2.08101,-0.68988 0.812,-0.556 1.49924,-1.38434 2.06189,-2.48564 0.4028,-0.80192 0.71912,-1.72134 0.94929,-2.75849 0.23657,-1.03715 0.35502,-2.06896 0.35502,-3.09541 0,-1.49692 -0.19838,-2.91386 -0.5948,-4.25039 -0.44756,-1.5183 -1.09628,-2.71578 -1.94665,-3.59255 -0.9207,-0.95161 -1.89601,-1.4273 -2.9254,-1.4273 z m 0.1633,1.01027 c 1.08054,0 2.08118,0.64669 3.00188,1.94045 1.13809,1.60384 1.70687,3.69411 1.70687,6.27094 0,1.28307 -0.15302,2.45924 -0.45992,3.52847 -0.39001,1.34722 -0.97541,2.4275 -1.75544,3.24011 -0.81201,0.83399 -1.66202,1.25108 -2.55075,1.25108 -0.0767,0 -0.21417,-0.0112 -0.41238,-0.0325 l 0.0284,-16.16646 c 0.2046,-0.0214 0.35181,-0.032 0.44132,-0.032 z"
       style="font-size:23.0993px;font-family:Broadway;-inkscape-font-specification:Broadway;white-space:pre;shape-inside:url(#rect1);opacity:1;fill:#eb9bcd;fill-rule:evenodd;stroke-width:0;paint-order:markers fill stroke"
       id="path48"
       inkscape:label="lletra13" />
    <path
       d="m 169.15815,126.38195 c -1.40023,0.0321 -2.64068,0.86041 -3.72122,2.48564 -1.15087,1.75353 -1.72651,3.95618 -1.72651,6.60786 0,1.35792 0.1633,2.64648 0.48938,3.8654 0.39002,1.44345 0.96223,2.62495 1.71669,3.54449 0.96545,1.19753 2.05236,1.79627 3.26078,1.79627 0.72249,0 1.41606,-0.23012 2.08101,-0.68988 0.81201,-0.556 1.49924,-1.38434 2.06189,-2.48564 0.40281,-0.80192 0.71912,-1.72134 0.9493,-2.75849 0.23656,-1.03715 0.35501,-2.06896 0.35501,-3.09541 0,-1.49692 -0.19786,-2.91386 -0.59428,-4.25039 -0.44756,-1.5183 -1.0968,-2.71578 -1.94716,-3.59255 -0.9207,-0.95161 -1.8955,-1.4273 -2.92489,-1.4273 z m 0.16278,1.01027 c 1.08054,0 2.08119,0.64669 3.00188,1.94045 1.13809,1.60384 1.70739,3.69411 1.70739,6.27094 0,1.28307 -0.15353,2.45924 -0.46043,3.52847 -0.39002,1.34722 -0.97541,2.4275 -1.75545,3.24011 -0.81201,0.83399 -1.66202,1.25108 -2.55075,1.25108 -0.0767,0 -0.21417,-0.0112 -0.41238,-0.0325 l 0.0284,-16.16646 c 0.2046,-0.0214 0.35181,-0.032 0.44132,-0.032 z"
       style="font-size:23.0993px;font-family:Broadway;-inkscape-font-specification:Broadway;white-space:pre;shape-inside:url(#rect1);display:inline;opacity:1;fill:#eb9bcd;fill-rule:evenodd;stroke-width:0;paint-order:markers fill stroke"
       id="path46"
       inkscape:label="lletra12" />
    <path
       d="m 161.00568,121.16935 c -1.40663,1.36861 -3.05599,2.62469 -4.94854,3.76876 v 1.81229 l -0.70021,-0.0801 c -0.0575,-0.0107 -0.15648,-0.016 -0.29714,-0.016 -0.30051,0 -0.45062,0.19283 -0.45062,0.57775 0,0.39561 0.15644,0.59324 0.46974,0.59324 0.10869,0 0.24271,-0.0106 0.40256,-0.032 0.19181,-0.0214 0.32001,-0.032 0.38395,-0.032 0.0384,0 0.10221,0.005 0.19172,0.016 v 5.74177 l -0.01,3.38377 v 1.20303 c 0,1.26169 0.0609,2.25088 0.18242,2.96726 0.12148,0.70569 0.34229,1.34705 0.66198,1.92443 0.62019,1.14407 1.49605,1.71618 2.62774,1.71618 1.20203,0 2.18024,-0.5508 2.93471,-1.6521 0.3069,-0.44907 0.56912,-0.97271 0.78651,-1.57148 0.21739,-0.60946 0.32608,-1.11763 0.32608,-1.52394 0,-0.4063 -0.10869,-0.60926 -0.32608,-0.60926 -0.18542,0 -0.34529,0.31002 -0.47956,0.93017 -0.14705,0.65223 -0.34886,1.20303 -0.60461,1.6521 -0.26214,0.44907 -0.50828,0.67334 -0.73846,0.67334 -0.17263,0 -0.29398,-0.15501 -0.36431,-0.46508 -0.0703,-0.31008 -0.10542,-0.85555 -0.10542,-1.63608 l -0.0289,-3.33571 -0.0382,-6.2389 0.01,-3.11144 h 0.27802 c 0.21739,0 0.57855,0.032 1.08366,0.0961 0.13427,0.0214 0.24638,0.032 0.3359,0.032 0.29411,0 0.4408,-0.19763 0.4408,-0.59325 0,-0.42769 -0.14036,-0.64182 -0.42168,-0.64182 -0.0576,0 -0.12482,0.005 -0.20154,0.016 -0.45396,0.0748 -0.9589,0.11266 -1.51516,0.11266 l 0.009,-0.49713 z"
       style="font-size:23.0993px;font-family:Broadway;-inkscape-font-specification:Broadway;white-space:pre;shape-inside:url(#rect1);opacity:1;fill:#eb9bcd;fill-rule:evenodd;stroke-width:0;paint-order:markers fill stroke"
       id="path31"
       inkscape:label="lletra11" />
    <path
       d="m 152.50852,121.16935 c -1.40662,1.36861 -3.05599,2.62469 -4.94853,3.76876 v 1.81229 l -0.70022,-0.0801 c -0.0575,-0.0107 -0.15648,-0.016 -0.29714,-0.016 -0.30051,0 -0.45114,0.19283 -0.45114,0.57775 0,0.39561 0.15697,0.59324 0.47026,0.59324 0.10869,0 0.24272,-0.0106 0.40256,-0.032 0.19181,-0.0214 0.32002,-0.032 0.38396,-0.032 0.0384,0 0.1022,0.005 0.19172,0.016 v 5.74177 l -0.01,3.38377 v 1.20303 c 0,1.26169 0.0609,2.25088 0.18241,2.96726 0.12149,0.70569 0.34178,1.34705 0.66146,1.92443 0.6202,1.14407 1.49606,1.71618 2.62775,1.71618 1.20202,0 2.18076,-0.5508 2.93522,-1.6521 0.3069,-0.44907 0.56861,-0.97271 0.786,-1.57148 0.21739,-0.60946 0.32608,-1.11763 0.32608,-1.52394 0,-0.4063 -0.10869,-0.60926 -0.32608,-0.60926 -0.18542,0 -0.34529,0.31002 -0.47956,0.93017 -0.14705,0.65223 -0.34835,1.20303 -0.6041,1.6521 -0.26214,0.44907 -0.50828,0.67334 -0.73845,0.67334 -0.17263,0 -0.29399,-0.15501 -0.36432,-0.46508 -0.0703,-0.31008 -0.10542,-0.85555 -0.10542,-1.63608 l -0.0289,-3.33571 -0.0382,-6.2389 0.009,-3.11144 h 0.27854 c 0.21739,0 0.57855,0.032 1.08365,0.0961 0.13427,0.0214 0.24587,0.032 0.33538,0.032 0.29412,0 0.44132,-0.19763 0.44132,-0.59325 0,-0.42769 -0.14087,-0.64182 -0.4222,-0.64182 -0.0575,0 -0.12429,0.005 -0.20102,0.016 -0.45395,0.0748 -0.95941,0.11266 -1.51567,0.11266 l 0.01,-0.49713 z"
       style="font-size:23.0993px;font-family:Broadway;-inkscape-font-specification:Broadway;white-space:pre;shape-inside:url(#rect1);opacity:1;fill:#eb9bcd;fill-rule:evenodd;stroke-width:0;paint-order:markers fill stroke"
       id="path30"
       inkscape:label="lletra10" />
    <path
       d="m 139.02407,126.38195 c -1.43859,0 -2.61177,0.34199 -3.51968,1.02629 -0.95267,0.71638 -1.42885,1.41154 -1.42885,2.08515 0,0.22454 0.0541,0.42217 0.16278,0.59324 0.10869,0.17108 0.2369,0.25684 0.38395,0.25684 0.19821,0 0.44092,-0.27807 0.72864,-0.83406 0.70971,-1.36861 1.71668,-2.05311 3.02101,-2.05311 0.84397,0 1.38109,0.29937 1.61127,0.89814 0.0959,0.24592 0.15341,0.52398 0.1726,0.83406 0.0192,0.31007 0.0318,1.14425 0.0382,2.50217 v 1.95647 c -0.54347,-0.43838 -1.02599,-0.73775 -1.44798,-0.89814 -0.42198,-0.17107 -0.90793,-0.25683 -1.45779,-0.25683 -1.34269,0 -2.46811,0.6259 -3.37602,1.87689 -0.78004,1.05853 -1.16995,2.44832 -1.16995,4.16977 0,1.94599 0.48251,3.5286 1.44797,4.74751 0.74167,0.93023 1.58929,1.39527 2.54196,1.39527 0.56265,0 1.13144,-0.171 1.70688,-0.51315 0.58183,-0.34215 1.1667,-0.85032 1.75493,-1.52394 v 1.68414 h 5.37073 c -0.23657,-0.68431 -0.38959,-1.32034 -0.45992,-1.90841 -0.0639,-0.59877 -0.0834,-1.48622 -0.0579,-2.66237 v -6.36757 c 0,-1.64661 -0.0638,-2.79563 -0.19172,-3.44785 -0.12787,-0.65223 -0.40277,-1.24032 -0.82475,-1.76424 -0.97185,-1.19753 -2.64073,-1.79627 -5.00642,-1.79627 z m -0.69039,7.40937 c 0.44116,0 1.06455,0.33718 1.87017,1.01079 l -0.0191,6.55929 c -0.3005,0.48115 -0.63291,0.8716 -0.99735,1.17099 -0.35805,0.28869 -0.68412,0.43304 -0.97824,0.43304 -0.37083,0 -0.58821,-0.24609 -0.65215,-0.73794 -0.0256,-0.18176 -0.0417,-0.69475 -0.0481,-1.53944 v -3.83335 c 0,-1.28308 0.0317,-2.05814 0.0956,-2.32544 0.11509,-0.49185 0.35832,-0.73794 0.72916,-0.73794 z"
       style="font-size:23.0993px;font-family:Broadway;-inkscape-font-specification:Broadway;white-space:pre;shape-inside:url(#rect1);opacity:1;fill:#eb9bcd;fill-rule:evenodd;stroke-width:0;paint-order:markers fill stroke"
       id="path44"
       inkscape:label="lletra9" />
    <path
       d="m 120.99365,122.43645 c -0.26215,0.0107 -0.41859,0.0267 -0.46974,0.0481 -0.17903,0.0428 -0.26872,0.23508 -0.26872,0.57723 0,0.38492 0.15354,0.57722 0.46044,0.57722 l 0.26872,-0.016 1.81229,-0.0641 1.26607,-0.0481 0.0289,3.68866 0.0284,4.34651 -0.0574,12.78268 h 5.85029 l -0.0289,-11.03447 0.0289,-4.76353 0.0481,-5.01985 h 0.19172 l 2.20607,0.0641 0.83405,0.0481 c 0.32608,0 0.48938,-0.18165 0.48938,-0.54519 0,-0.278 -0.0639,-0.45965 -0.19172,-0.54519 -0.0767,-0.0535 -0.31995,-0.0854 -0.72915,-0.0961 z"
       style="font-size:23.0993px;font-family:Broadway;-inkscape-font-specification:Broadway;white-space:pre;shape-inside:url(#rect1);opacity:1;fill:#eb9bcd;fill-rule:evenodd;stroke-width:0;paint-order:markers fill stroke"
       id="path34"
       inkscape:label="lletra8" />
    <path
       d="m 111.6335,121.20139 c -1.61123,0.0214 -2.41691,0.75915 -2.41691,2.2133 0,1.5183 0.80226,2.27738 2.40709,2.27738 0.80561,0 1.429,-0.19763 1.87017,-0.59325 0.44756,-0.4063 0.67127,-0.96775 0.67127,-1.68413 0,-1.47553 -0.84367,-2.2133 -2.53162,-2.2133 z"
       style="font-size:23.0993px;font-family:Broadway;-inkscape-font-specification:Broadway;white-space:pre;shape-inside:url(#rect1);opacity:1;fill:#eb9bcd;fill-rule:evenodd;stroke-width:0;paint-order:markers fill stroke"
       id="path32"
       inkscape:label="lletra7b" />
    <path
       d="m 109.21659,126.815 -0.01,0.60926 0.0289,3.04736 0.0191,2.74247 -0.0289,5.2126 -0.0475,5.90197 h 4.92941 l -0.0191,-1.44332 -0.0382,-3.32022 0.0284,-5.90196 0.0191,-3.88142 0.0191,-2.50165 V 126.815 Z"
       style="font-size:23.0993px;font-family:Broadway;-inkscape-font-specification:Broadway;white-space:pre;shape-inside:url(#rect1);opacity:1;fill:#eb9bcd;fill-rule:evenodd;stroke-width:0;paint-order:markers fill stroke"
       id="path52"
       inkscape:label="lletra7a" />
    <path
       d="m 95.674264,126.38195 c -0.709706,0 -1.422272,0.22427 -2.138371,0.67334 -0.709706,0.43839 -1.422788,1.1069 -2.138888,2.00505 V 126.815 h -4.910294 l 0.03824,6.12624 -0.0093,3.84938 -0.0098,3.97753 -0.01912,2.9192 v 0.64131 h 4.920113 l -0.04806,-7.20111 0.03824,-6.78408 c 0.447562,-0.62016 0.85357,-1.08038 1.218014,-1.37977 0.370837,-0.31007 0.703243,-0.46508 0.997355,-0.46508 0.390018,0 0.620583,0.23011 0.690914,0.68988 0.03836,0.25661 0.05736,1.62509 0.05736,4.10569 l -0.02894,7.53804 -0.01912,3.49643 h 4.910294 c -0.03197,-1.07992 -0.04754,-2.28273 -0.04754,-3.60857 l 0.01912,-4.5067 0.01912,-4.00957 c 0,-0.78054 -0.01609,-1.37928 -0.04806,-1.79628 0.441169,-0.63084 0.850599,-1.10172 1.227839,-1.4118 0.38362,-0.31007 0.73502,-0.46508 1.05471,-0.46508 0.30051,0 0.50813,0.16085 0.62322,0.48162 0.11509,0.32077 0.16969,0.90301 0.1633,1.7477 -0.006,0.1283 -0.006,0.57203 0,1.33118 l 0.009,2.06913 -0.0475,5.10046 -0.0388,5.06791 h 4.92011 l -0.009,-0.65733 -0.0481,-5.34076 v -0.99477 l 0.0382,-4.23385 c 0,-1.20822 -0.0322,-2.11699 -0.0961,-2.72645 -0.0639,-0.62015 -0.17896,-1.16561 -0.3452,-1.63607 -0.57543,-1.57176 -1.59507,-2.35748 -3.05924,-2.35748 -0.79922,0 -1.56005,0.24025 -2.28255,0.7214 -0.7161,0.47046 -1.489602,1.2402 -2.320789,2.30942 -0.204599,-0.76984 -0.438072,-1.33077 -0.700215,-1.68362 -0.652162,-0.89815 -1.512449,-1.3472 -2.580204,-1.3472 z"
       style="font-size:23.0993px;font-family:Broadway;-inkscape-font-specification:Broadway;white-space:pre;shape-inside:url(#rect1);opacity:1;fill:#eb9bcd;fill-rule:evenodd;stroke-width:0;paint-order:markers fill stroke"
       id="path42"
       inkscape:label="lletra6" />
    <path
       d="m 78.286694,126.38195 c -1.438593,0 -2.611769,0.34199 -3.519681,1.02629 -0.952669,0.71638 -1.428854,1.41154 -1.428854,2.08515 0,0.22454 0.05409,0.42217 0.162781,0.59324 0.108694,0.17108 0.236383,0.25684 0.383439,0.25684 0.198206,0 0.441436,-0.27807 0.729155,-0.83406 0.709705,-1.36861 1.716679,-2.05311 3.021004,-2.05311 0.843974,0 1.381096,0.29937 1.611271,0.89814 0.09591,0.24592 0.153418,0.52398 0.172599,0.83406 0.01918,0.31007 0.03185,1.14425 0.03824,2.50217 v 1.95647 c -0.543469,-0.43838 -1.025987,-0.73775 -1.447974,-0.89814 -0.421987,-0.17107 -0.90793,-0.25683 -1.457792,-0.25683 -1.342687,0 -2.468109,0.6259 -3.376021,1.87689 -0.780037,1.05853 -1.169955,2.44832 -1.169955,4.16977 0,1.94599 0.482518,3.5286 1.447974,4.74751 0.741674,0.93023 1.588779,1.39527 2.541447,1.39527 0.56265,0 1.131952,-0.171 1.707389,-0.51315 0.581831,-0.34215 1.166707,-0.85032 1.754932,-1.52394 v 1.68414 h 5.370731 c -0.236568,-0.68431 -0.390105,-1.32034 -0.460437,-1.90841 -0.06394,-0.59877 -0.08294,-1.48622 -0.05736,-2.66237 v -6.36757 c 0,-1.64661 -0.06385,-2.79563 -0.19172,-3.44785 -0.127875,-0.65223 -0.402769,-1.24032 -0.824756,-1.76424 -0.971849,-1.19753 -2.640726,-1.79627 -5.006412,-1.79627 z m -0.690397,7.40937 c 0.441169,0 1.064558,0.33718 1.87017,1.01079 l -0.01912,6.55929 c -0.300506,0.48115 -0.632912,0.8716 -0.997355,1.17099 -0.35805,0.28869 -0.684123,0.43304 -0.978235,0.43304 -0.370837,0 -0.588736,-0.24609 -0.652673,-0.73794 -0.02558,-0.18176 -0.04115,-0.69475 -0.04754,-1.53944 v -3.83335 c 0,-1.28308 0.03166,-2.05814 0.0956,-2.32544 0.115087,-0.49185 0.358317,-0.73794 0.729154,-0.73794 z"
       style="font-size:23.0993px;font-family:Broadway;-inkscape-font-specification:Broadway;white-space:pre;shape-inside:url(#rect1);opacity:1;fill:#eb9bcd;fill-rule:evenodd;stroke-width:0;paint-order:markers fill stroke"
       id="path40"
       inkscape:label="lletra5" />
    <path
       d="m 67.046554,126.38195 c -0.677738,0 -1.374729,0.22427 -2.090829,0.67334 -0.7161,0.43839 -1.44818,1.10157 -2.196248,1.98903 V 126.815 h -4.910295 l 0.02842,3.47989 0.02894,3.59306 -0.02894,4.15375 -0.02842,6.28696 h 4.900476 l -0.0093,-0.68937 -0.02894,-4.71547 0.01912,-3.44837 0.01912,-4.5067 0.0098,-0.65784 c 0.421987,-0.59877 0.815329,-1.04782 1.179773,-1.34721 0.364443,-0.29938 0.703182,-0.44906 1.016475,-0.44906 0.338869,0 0.559675,0.17151 0.661975,0.51366 0.05115,0.17108 0.07991,0.36871 0.0863,0.59325 0.01279,0.21384 0.02203,0.89301 0.02842,2.03708 l 0.0098,4.93975 -0.02894,3.27164 -0.03824,4.45864 h 4.881356 l -0.02842,-3.73672 0.01912,-7.42591 c 0,-1.75353 -0.08336,-3.01545 -0.249597,-3.7853 -0.159844,-0.78053 -0.476159,-1.43255 -0.949296,-1.95647 -0.626587,-0.69499 -1.393756,-1.04231 -2.301668,-1.04231 z"
       style="font-size:23.0993px;font-family:Broadway;-inkscape-font-specification:Broadway;white-space:pre;shape-inside:url(#rect1);opacity:1;fill:#eb9bcd;fill-rule:evenodd;stroke-width:0;paint-order:markers fill stroke"
       id="path38"
       inkscape:label="lletra4" />
    <path
       d="m 42.887821,126.815 0.04806,5.27616 -0.0098,2.50217 -0.01912,3.75326 c 0,1.15477 0.04142,2.04755 0.12454,2.67839 0.08951,0.62015 0.246474,1.17576 0.470255,1.6676 0.601013,1.32584 1.569473,1.98903 2.905766,1.98903 0.728887,0 1.425879,-0.20296 2.090829,-0.60927 0.671343,-0.4063 1.412664,-1.07482 2.22467,-2.00504 v 2.26136 h 4.900993 l -0.02894,-4.90771 0.02894,-12.60595 H 50.7137 v 0.49713 l 0.05736,5.62911 -0.01912,5.72575 -0.0093,2.10116 c -0.524287,0.68431 -0.952718,1.16 -1.285193,1.4273 -0.326081,0.26731 -0.642913,0.40101 -0.949813,0.40101 -0.300506,0 -0.504705,-0.13903 -0.613399,-0.41702 -0.08951,-0.24593 -0.134359,-0.9837 -0.134359,-2.21331 l -0.0098,-2.05258 -0.0093,-3.04736 0.04754,-8.05119 z"
       style="font-size:23.0993px;font-family:Broadway;-inkscape-font-specification:Broadway;white-space:pre;shape-inside:url(#rect1);opacity:1;fill:#eb9bcd;fill-rule:evenodd;stroke-width:0;paint-order:markers fill stroke"
       id="path50"
       inkscape:label="lletra3" />
    <path
       d="m 37.420972,126.38195 c -1.067756,0 -2.013793,0.42723 -2.838587,1.28261 -0.498712,0.51323 -0.889146,1.13912 -1.170471,1.87689 -0.274931,0.72707 -0.412378,1.49148 -0.412378,2.2934 0,0.91953 0.201808,1.88157 0.604614,2.88664 0.4092,0.99438 1.301151,2.72135 2.675806,5.18056 0.56265,1.01577 0.923811,1.70559 1.083655,2.06913 0.166237,0.35284 0.24908,0.65754 0.24908,0.91416 0,0.25661 -0.06042,0.45424 -0.181901,0.59324 -0.115087,0.12831 -0.291048,0.19275 -0.527616,0.19275 -0.5115,0 -1.061287,-0.17684 -1.649512,-0.52968 -0.588225,-0.36354 -1.042503,-0.79661 -1.362191,-1.29915 -0.198206,-0.32076 -0.360984,-0.4811 -0.488859,-0.4811 -0.249356,0.0107 -0.374137,0.21417 -0.374137,0.60978 0,0.21384 0.05118,0.41148 0.153479,0.59324 0.108694,0.18177 0.307077,0.41721 0.594796,0.7059 0.978243,0.94092 2.100241,1.41129 3.366202,1.41129 1.138087,0 2.097307,-0.42242 2.877344,-1.26711 0.952668,-1.01576 1.428854,-2.34695 1.428854,-3.99355 0,-1.04784 -0.169628,-2.02105 -0.508497,-2.9192 -0.198206,-0.52392 -0.40583,-0.98363 -0.623217,-1.37925 -0.210994,-0.4063 -0.713027,-1.25595 -1.505852,-2.54971 -0.812005,-1.32584 -1.352035,-2.26709 -1.620572,-2.82309 -0.262144,-0.55599 -0.393258,-1.0157 -0.393258,-1.37924 0,-0.31008 0.07018,-0.53967 0.21084,-0.68936 0.147056,-0.1497 0.36153,-0.2248 0.642855,-0.2248 0.799218,0 1.537631,0.40644 2.215368,1.21905 0.332475,0.39561 0.559098,0.59325 0.680579,0.59325 0.1023,0 0.191992,-0.0639 0.268717,-0.19224 0.08312,-0.12831 0.12454,-0.27267 0.12454,-0.43305 0,-0.51323 -0.342163,-0.98944 -1.026293,-1.42782 -0.875944,-0.556 -1.706957,-0.83354 -2.493388,-0.83354 z"
       style="font-size:23.0993px;font-family:Broadway;-inkscape-font-specification:Broadway;white-space:pre;shape-inside:url(#rect1);opacity:1;fill:#eb9bcd;fill-rule:evenodd;stroke-width:0;paint-order:markers fill stroke"
       id="path36"
       inkscape:label="lletra2" />
    <path
       d="m 21.165116,122.43645 c -0.262143,0.0107 -0.419105,0.0267 -0.470255,0.0481 -0.179025,0.0428 -0.268201,0.23508 -0.268201,0.57723 0,0.38492 0.153021,0.57722 0.45992,0.57722 l 0.268718,-0.016 1.812809,-0.0641 1.265556,-0.0481 0.02894,3.68866 0.02894,4.34651 -0.05788,12.78268 h 5.850289 l -0.02842,-11.03447 0.02842,-4.76353 0.04806,-5.01985 h 0.191719 l 2.206067,0.0641 0.834575,0.0481 c 0.326081,0 0.488859,-0.18165 0.488859,-0.54519 0,-0.278 -0.06385,-0.45965 -0.19172,-0.54519 -0.07672,-0.0535 -0.319954,-0.0854 -0.729154,-0.0961 z"
       style="font-size:23.0993px;font-family:Broadway;-inkscape-font-specification:Broadway;white-space:pre;shape-inside:url(#rect1);opacity:1;fill:#eb9bcd;fill-rule:evenodd;stroke-width:0;paint-order:markers fill stroke"
       id="path33"
       inkscape:label="lletra1" />
    <path
       d="m 17.521928,152.31783 a 91.631927,85.201622 0 0 0 88.176532,62.29388 91.631927,85.201622 0 0 0 88.17653,-62.29388 z"
       style="display:inline;opacity:1;fill:#eb9bcd;fill-rule:evenodd;stroke-width:0;paint-order:markers fill stroke"
       id="path57"
       inkscape:label="circulo_inf" />
    <path
       d="M 105.69846,44.208154 A 91.631927,85.201622 0 0 0 15.45332,115.34386 H 196.04643 A 91.631927,85.201622 0 0 0 105.69846,44.208154 Z"
       style="display:inline;opacity:1;fill:#eb9bcd;fill-rule:evenodd;stroke-width:0;paint-order:markers fill stroke"
       id="path56"
       inkscape:label="circulo_sup" />
    <circle
       style="display:none;opacity:1;fill:#eb9bcd;fill-rule:evenodd;stroke-width:0;paint-order:markers fill stroke"
       id="path1"
       cx="103.5894"
       cy="135.94228"
       r="84.856598" />
  </g>
</svg>
