<?xml version="1.0" encoding="UTF-8" standalone="no"?>
<!-- Created with Inkscape (http://www.inkscape.org/) -->

<svg
   version="1.1"
   id="svg1"
   width="1024"
   height="1024"
   viewBox="0 0 1024 1024"
   xmlns="http://www.w3.org/2000/svg"
   xmlns:svg="http://www.w3.org/2000/svg">
  <defs
     id="defs1" />
  <g
     id="g1">
    <path
       style="fill:#2d3136;stroke:none"
       d="M 0,0 V 1024 H 1024 V 0 H 0 m 245,296 c 20.66827,-33.04254 59.12042,-64.52551 99,-69.71063 25.02487,-3.25373 62.64957,6.86725 82.98456,-11.47455 12.60431,-11.3689 9.06537,-30.28809 -8.98456,-32.63037 -23.78488,-3.08649 -48.09906,-0.18286 -72,-0.18445 -21.02811,-0.001 -42.13446,-3.04645 -63,1 10.54276,-13.0752 27.02246,-25.88751 44,-28.56097 13.01407,-2.04932 26.85538,0.0972 40,-0.4784 21.28214,-0.93188 43.63541,-1.33563 65,0.12885 29.84583,2.04583 47.62756,24.93414 35.85416,53.91052 -2.99466,7.37036 -6.97394,14.72321 -11.8696,21 -32.56168,41.74768 -96.15821,18.68164 -140.98456,27.80707 -16.7984,3.41968 -34.25812,11.84247 -48,21.94909 -7.46823,5.49262 -13.96741,12.60157 -22,17.24384 M 644,153 c 17.76648,5.25171 42.44177,1 61,1 v 1 c -26.02521,15.04364 -31.33368,53.51123 -49.51776,75.98535 C 645.00861,243.92999 622.41742,248.32635 608,256 c 6.77521,-23.47388 23.69818,-46.79785 34.25537,-69 5.81482,-12.2287 13.41577,-23.3371 0.74463,-33 l 1,-1 m -92,113 c 8.44574,-18.1145 26.29224,-29.95422 27.90973,-52 2.6463,-36.06787 -44.44171,-33.80432 -68.90973,-26.56091 -5.74973,1.70215 -11.37225,4.17798 -17,6.25689 -6.15091,2.27216 -11.12146,6.52308 -17,9.30402 21.39346,-37.18744 79.64014,-65.27692 120,-39.75696 22.49829,14.22589 24.07452,43.28296 14.13812,65.75696 -2.86572,6.48163 -6.89807,14.95898 -13.00848,18.94983 C 584.56769,256.8075 567.49799,261.85699 552,266 M 320,224 c 6.9581,-16.70795 18.89362,-25.86896 36,-30.70215 4.61584,-1.30414 15.9794,-3.7016 18.72763,1.85028 2.04855,4.13837 -2.08227,13.40143 -5.86111,15.53473 -4.58255,2.58704 -11.74039,2.90906 -16.86652,4.19061 -10.75418,2.68854 -21.27274,6.58448 -32,9.12653 m 211,-32 v 1 c -22.62317,10.74976 -56.80719,57.76453 -23,75.67285 18.63208,9.86981 44.01196,2.52014 63,-2.19751 6.4881,-1.612 12.69965,-2.04907 19,-4.47534 -4.40149,8.24548 -14.41119,15.09515 -22,20.34027 -23.98322,16.57642 -64.89056,28.74219 -91,8.26929 C 459.13626,276.60223 454.44528,246.45575 466.5625,227 473.56897,215.75024 485.22833,208.14343 497,202.76929 507.83139,197.8244 518.99927,192.95514 531,192 m 229,58 c -8.52448,12.06805 -21.71326,23.13977 -31.96448,34 -4.00989,4.24811 -7.47149,10.6662 -13.05017,12.99072 C 701.59088,302.5719 681.25879,299 667,299 H 562 v -1 c 10.60828,-4.44708 18.71289,-13.46588 28,-20.09027 C 606.3653,266.23657 624.25079,257.07642 644,253 l -7,15 c 12.92969,0 26.16437,-1.52191 39,-0.96063 19.12195,0.83612 42.31586,3.72271 61,-1.67749 8.82159,-2.54969 15.15802,-10.89374 23,-15.36188 m -419,11 c -11.32214,33.25037 -45.98672,62.8595 -82,66 v -1 c 24.84036,-17.50958 27.89459,-51.86145 59,-62 l -1,2 h 1 l 23,-5 m 373,41 -12,25 c 1.88428,-7.95142 5.77448,-19.56702 12,-25 m 117,140 v -1 c 20.09155,-4.60614 22.38617,-16.11938 20,-35 h -1 l -4,24 h -1 c -3.58667,-21.10016 -11.85156,-42.7652 -21,-62 20.20941,8.38953 20,36.07495 20,55 h 1 c 2.05896,-25.86896 5.5412,-49.45923 -23,-61.57178 -4.79523,-2.03503 -9.84625,-3.66992 -15,-4.42822 v -1 h 4 v -1 c -26.51318,-5.47253 -49.08331,-15.77667 -77,-10.19214 -9.677,1.93579 -15.9129,9.82996 -25,12.19214 v -1 l 19,-12 v -1 c -18.09442,3.98651 -36.85974,-4.16522 -55,-4.96063 C 627.65863,336.05121 582.47308,335 537,335 v 1 c 57.14227,0 114.07837,6.45728 170,18 v 1 c -18.86639,-0.82227 -39.07593,-7.23285 -58,-9.86963 -42.37122,-5.90369 -87.35773,-10.03693 -130,-8.16974 -22.46991,0.98389 -47.94534,0.90241 -69,9.91205 -22.63528,9.68604 -39.93185,29.05261 -57,46.12732 -13.79123,13.79651 -26.86426,28.65906 -36,46 l 151,8 v 1 l -28,-1 v 1 l 39,16 v 1 h -4 v 1 l 33,3.96063 L 591,468 v 1 L 564,474.75616 530,486 v 1 l 5,-1 v 1 L 501,498.34491 465,512 v 1 c 28.88058,-6.68127 56.19843,-20.68372 85,-28.26544 31.9458,-8.40943 66.40082,-10.65228 99,-15.98071 14.8877,-2.43342 29.97876,-3.8089 45,-4.84333 6.55597,-0.45147 13.03815,-2.52691 17,4.08948 -71.9704,0 -146.46686,13.2923 -214,38.05322 -32.68091,11.98242 -64.47675,26.10456 -97,38.37195 -12.30185,4.64008 -24.08255,11.87439 -37,14.57483 7.95709,-13.35791 28.56436,-20.43457 42,-26.78088 35.49509,-16.766 71.8121,-35.63843 109,-48.21912 v -1 c -10.5545,0.007 -20.51804,3.46106 -31,3.74072 -81.3277,2.17005 -163.23685,11.2475 -242,33.00464 -23.17166,6.40082 -45.88635,17.01264 -68.16975,25.99927 C 165.64685,548.6416 159.56863,554.14844 152,556 v 1 h 2 v 1 l -10,2 h -5 c 0.25316,-10.76843 8.91846,-15.8075 14.65509,-24 C 170.01778,512.63245 188.41327,489.54974 212,473 v -1 c -6.07808,-4.1676 -11.84613,-4.01147 -19,-4 -6.29707,0.0101 -16.4574,-0.44043 -21.99924,2.79938 C 164.84198,474.3999 160.73784,481.75696 157.78087,488 150.57416,503.21564 143.45868,521.28943 141,538 h -1 v -18 l -2,2 c -11.08164,-0.88556 -25.93726,13.89221 -26.06867,25 -0.0906,7.65698 4.76348,15.79333 7.06867,23 14.38565,-4.08392 27.93716,-9.39099 43,-10.8302 35.09229,-3.35315 73.40007,2.0188 108,7.74994 15.46246,2.56122 42.41565,4.3067 53,17.08026 -33.64661,-14.0083 -68.83372,-18.43762 -105,-21.08875 -21.74741,-1.59411 -44.27917,-3.97009 -66,-0.47302 -11.45248,1.84387 -21.90617,6.53363 -33,9.56177 v 1 l 39,-10 v 1 l -15,4 c -0.25334,4.12476 -3.18225,6.03955 -7,7 l -2,11 v 6 l 1,27 v 1 c 2.59471,0.31451 2.52296,0.45984 2,3 l 52,8.08026 33,3.61572 43,-16.48761 34,-7.20837 -2,3 4,-1 -2,4 5,-1 c 1.14795,-5.71515 10.76282,-9.45947 16,-11 -0.3107,-1.70886 -0.0865,-3.49902 1,-1 h 1 l 8,-11 h 1 c 8.41565,12.95007 -13.81903,17.0896 -24,20 v 1 l 36,-7 v 1 c -5.17566,0.93823 -8.03217,3.10291 -10,8 10.07864,2.74994 19.72107,3.09094 30,4.75385 46.62958,7.54364 102.3327,8.78192 133,-33.75385 -4.92944,0.0408 -11.69644,-0.0535 -15,4 h 4 v 1 h -7 l 2,-3 -9,2 -1,6 h -2 c -2.02213,-4.0553 -3.65903,-9.31641 1,-12 l 3,3 1,-4 -3,-2 h -1 c -2.48932,2.45569 -4.71326,-0.0682 -7,-2 v 4 l -7,-7 16,1 3,4 c 1.06473,-6.07465 18.16269,-5.17365 22.39352,-1.82178 1.91794,1.51953 1.44626,4.64881 1.60648,6.82178 13.28729,-14.37482 38.99567,-3.14905 57,-3 L 539.8858,611 525,645 h -1 l 2,-8 c -26.74023,10.0144 -56.12054,-0.39954 -83,6 l -5,-2 v 1 h 2 v 1 l -24,2 v 1 h 2 v 1 l -6,-1 v 1 h 3 v 1 c -18.96756,6.17175 -44.45197,16.12146 -64.71451,13.67822 C 345.19174,661.06403 340.10153,657.95215 335,656.81482 311.9321,651.67224 285.60632,645.05164 262,646 v -1 h 2 v -1 l -10,1 v -1 h 5 v -1 c -46.61032,-0.0308 -92.56079,-14.3349 -139,-18 v -1 h 6 v -1 c -12.70866,-0.26233 -25.14299,-3 -38,-3 -3.921417,0 -12.220161,1.85669 -15.567131,-0.11731 C 69.628868,618.229 69.090332,612.81921 67.99614,610 63.57201,598.60107 61.674721,589.94397 65.864967,578 78.236633,542.73547 99.954567,517.23871 127,492.08948 177.48224,445.14661 256.22745,438.54437 322,438 v 1 c -20.27899,9.17242 -44.99026,12.69482 -62,28 48.59348,-9.0542 98.77411,-13.1358 148,-13 v -1 l -54,-13 c 7.38254,-19.19806 24.75671,-35.75671 39,-50 17.75616,-17.75616 35.74335,-36.21155 59,-46.68829 20.14655,-9.07575 44.33832,-11.0246 66,-13.59723 57.39362,-6.81629 115.46069,-5.74433 173,-1.80396 42.10474,2.88343 90.77307,4.30329 129,24.40973 17.40179,9.15289 32.65479,23.1073 41.74152,40.67975 2.79889,5.41266 6.987,12.64026 5.82483,19 -1.34034,7.33459 -9.08429,13.49664 -13.68207,18.90973 C 848.16101,437.64795 839.73975,441.23688 831,442 M 935,336 c -0.1778,21.47717 -5.64459,43.72565 -8.57483,65 -0.82056,5.95752 0.23114,18.66138 -6.42517,21 8.43646,-19.78076 7.19043,-46.74725 11.19598,-68 1.10791,-5.87848 0.96631,-12.66394 3.80402,-18 m -206,6 1,1 -1,-1 m -201,2 v 1 c -29.58707,0 -46.65381,16.33215 -68.03937,34.92053 -9.33001,8.10968 -19.5224,15.16211 -28.67514,23.47913 C 424.3551,409.69727 418.00858,419.4101 410,424 l -1,6 -3,1 3,2 c -13.36673,5.67712 -28.8183,4 -43,4 9.3089,-24.59558 33.90402,-43.91101 52,-62 8.50473,-8.5014 18.466,-19.4115 30,-23.61652 C 472.77896,342.34961 502.08447,344 528,344 m 253,8 v 1 h -7 l 7,-1 m -9,1 v 1 c -8.24133,0.35919 -20.30225,2.75116 -25.27234,10.04321 -5.89221,8.64502 -6.0805,25.72162 -7.80871,35.95679 -3.37317,19.97742 -8.25751,40.22461 -15.91895,59 -2.05334,-8.99469 5.55157,-23.88672 7.57562,-33 3.32868,-14.98743 6.79248,-29.93762 9.82404,-45 1.25183,-6.21973 1.44555,-14.93243 5.8789,-19.81482 C 752.37842,354.46747 763.43622,353.02362 772,353 m 34,2 v 1 l -19,-2 19,1 m 6.66669,1.33331 0.66662,0.33338 -0.66662,-0.33338 M 714,358 l 7,8 h -1 l -7,-7 1,-1 m 40,2 -6,7 h -1 l 7,-7 m 65,10 c 7.5614,14.77997 12.24115,30.42761 17.78241,46 1.69641,4.7674 6.02502,13.57135 3.6134,18.58179 C 838.58832,438.3371 831.66614,439.45087 828,440 l 1,8 c 19.85687,-7.40356 39.44421,-18.36584 43,-42 h 1 c 3.03064,3.97504 6.67029,8.99438 12,9.73224 4.57574,0.63348 9.36133,-2.17975 13.48608,1.01007 14.72388,11.38666 22.8675,31.96216 34.32178,46.25769 9.78504,12.21222 23.35663,20.85236 27.19214,37 h -1 c -2.06311,-4.95386 -4.61499,-9.61133 -7.7215,-13.99615 -2.11059,-2.97907 -4.43115,-5.70063 -7.31787,-7.9599 C 925.16101,463.33063 908.5166,493.3374 901.29785,507 898.21271,512.83905 896.39087,519.43073 889,520 v -5 h -1 c -3.4906,25.92242 -15.45575,51.61597 -30,73 l 26,-5 v 1 l -25.83026,6.02393 -12.18439,12.53698 L 817,620.75232 730,656.05322 672,677 c 4.07373,-7.15912 17.62708,-9.29242 25,-12.05017 21.36072,-7.98962 42.80426,-15.87091 64,-24.34949 25.88776,-10.35547 55.79163,-18.79907 78,-36.26929 C 876.47839,574.84863 889,520.27271 889,475 h -1 l -3,38 h -1 c -8.6438,-6.54852 -27.5647,0.0961 -37,2.52161 -28.9726,7.44799 -58.05133,14.28759 -87,21.60498 -8.42798,2.13031 -26.77313,3.13586 -33,8.87341 h -1 l -1,-2 -1,16 h -1 c 0,-29.16492 -2.49072,-59.52466 -9,-88 h 1 c 3.83093,4.82263 8.77002,2.71954 13.67517,5.43365 C 738.29291,482.75531 746.86682,491.75989 758,481 h 1 c 10.25079,6.44696 21.34259,5.14795 22,-9 16.20685,0 35.30664,0.51868 46,-14 h 1 c 8.52618,8.70648 14.8396,-1.24854 22.09338,-4.25769 4.48212,-1.85938 9.33197,0.37543 13.90662,-0.36115 4.90863,-0.79034 9.23309,-4.00799 14,-5.38116 l 2,5 h 1 l -5,-9 c 12.78131,6.08887 5.53162,-10.15991 4,-15 -4.72522,2.21161 -8.24115,5.73169 -9,11 l -9,-3 v 1 l 5,2 c -8.88251,5.97491 -36.28314,5.20416 -38,16 h -1 c -1.11462,-21.4845 -38.59143,-33.89545 -55,-22.21063 -10.34985,7.3703 -9.90424,20.28595 -22,23.21063 l -10,-45 h 1 l 1,3 c 10.21436,-3.96283 39.6106,-14.04272 40,-26 h 1 l 3,7 h 1 l -3,-15 h 1 l 7,13 c 5.5376,-7.85291 17.40967,-14.91803 26,-19 v -5 m -123,19 v 1 l -55,-8 19,1.19598 L 696,389 M 548,383 539.89508,407.98535 528.10803,421 521,436 c 2.74512,-14.73273 10.29822,-18.98987 18.03088,-31 4.17408,-6.48303 5.52662,-14.56195 6.96912,-22 h 2 m -25.33331,1.66669 -0.33338,0.66662 0.33338,-0.66662 M 522,387 l -1,1 1,-1 m -1,2 -1,1 1,-1 m -2,4 -1,1 1,-1 m -4,7 -1,1 1,-1 m -149,11 -5,5 h -1 v -8 c -8.71545,1.1264 -15.50165,3.93811 -21,11 l 9,2 c -0.12219,5.91962 -4.52527,16.56915 5,15 v 1 l -15,2 v -1 h 7 v -1 l -3,-1 2,-10 c -2.9577,-0.33234 -6.11301,0.13147 -8.99924,-0.65198 -6.29522,-1.7088 -7.98803,-6.45978 -2.89196,-10.95758 C 338.97324,408.33185 360.47656,400.47461 366,411 m 375,-1 -1,1 1,-1 m -23,2 c 0,12.26971 -0.52435,24.8656 -2.43903,37 -1.19445,7.56995 -2.92126,13.39624 -11.56097,12 3.23889,-14.12781 5.6076,-37.22339 14,-49 m -350.33334,2.66669 -0.33332,0.66662 0.33332,-0.66662 M 453,416 v 1 c -8.47717,6.28394 -15.3663,11.19244 -26,13 v -1 l 26,-13 m 286,4 9,36 -20,2 c 2.34827,-12.10858 4.34442,-27.42316 11,-38 m -331,5 1,1 -1,-1 m 514,0 1,5 h -1 v -5 m -3,4 2,3 -2,-3 m -494,1 -1,1 1,-1 m -97,1 6,6 v 1 c -3.38522,-1.35138 -6.1994,-3.05804 -6,-7 m 90,1 -7,3 7,-3 m 173,0 v 4 h -1 l 1,-4 m -94,3 -1,1 1,-1 m 360,0 v 1 l 5,1 v -1 l -5,-1 m -359,3.33331 c 0.77338,0 0.16022,0.49793 -0.33334,0.33338 L 498,438.33331 M 816,446 796,449.08948 763,454 c 1.07202,-6.88434 6.92273,-8.57037 13,-10.25464 11.84619,-3.28308 28.81866,-3.21875 40,2.25464 m -352,-1 v 1 h 7 l -7,-1 m 133,0 v 1 h -13 l 13,-1 m -124,1 v 1 h 7 l -7,-1 m 159,1 c 12.30457,5.20026 30.65771,6.42719 44,7 v 1 l -45,-5 1,-3 m -108,1 v 1 h -7 l 7,-1 m 103,0 v 1 l -38,1 38,-2 m 254,5 4,10 h 1 l -5,-10 m 18,0 c -1.01099,9.53033 3.51971,26.87976 16,25.8125 4.13464,-0.35358 7.69666,-3.56793 11,-5.8125 -6.3299,-7.31683 -17.00958,-18.89398 -27,-20 m -489,1 v 1 h 3 l -3,-1 m 271,1 v 1 h -4 l 4,-1 m 171.10492,0.78162 c -16.68433,6.23535 -4.93915,34.40075 10.87964,28.61108 5.58594,-2.04443 18.6958,-15.80029 13.41205,-22.07483 -2.8927,-3.43518 -7.72651,-1.24036 -11.39661,-2.90198 -3.98291,-1.80322 -8.1637,-5.40252 -12.89508,-3.63427 M 702,456 l -1,1 1,-1 m 54,2 v 1 h -10 l 10,-1 m 3,0 -1,1 1,-1 m -58.33331,1.66669 -0.33338,0.66662 0.33338,-0.66662 M 733,459 l -1,1 1,-1 m 26,1 1,4 -7,3 c -12.72986,-3.03064 -28.16425,-0.62219 -41,1 l -1,-5 48,-3 m 68,0 1,1 -1,-1 m 44,7 h 1 l 4,-4 c 0.80518,9.2998 -22.8717,9.1557 -30,11 1.26947,-7.78174 20.47583,-14.74286 25,-7 m 15.33331,-2.33331 0.33338,0.66662 -0.33338,-0.66662 M 873,466 l 1,1 -1,-1 m -114,2 v 1 l -3,1 3,-2 m 5,0 -4,7 c -0.94275,-3.93469 0.0608,-5.88654 4,-7 m 123,0 v 5 h 1 l -1,-5 m -139,2 -1,1 1,-1 m -2,1 -1,1 1,-1 m -26,81 h -1 v -7 h -1 c -0.33002,9.92334 -18.4624,10.04724 -24.70526,18.05402 C 680.40625,579.58411 682.87177,597.28674 676,616 h -1 c -3.1908,-40.36896 -35.69653,-89.5827 -81,-68.69055 -10.19751,4.70263 -19.41345,12.19012 -26.69983,20.69055 -3.2724,3.81769 -7.20666,12.75702 -12.39355,13.95752 -6.0492,1.40015 -15.63562,-2.1615 -21.90662,-2.78851 -22.37048,-2.23676 -44.591,-6.40046 -67,-8.16901 6.42181,-9.11548 16.49063,-16.13037 25,-23.24615 16.84482,-14.08613 35.56055,-31.19904 56,-39.75385 -6.31714,17.33264 4.97571,24.20587 18,33.02777 4.33539,2.93652 10.37921,8.53082 16.03937,8.27393 4.75427,-0.21582 10.42358,-4.58503 14.96063,-6.24848 C 604.73059,539.85223 612.77576,539 622,539 c -6.23279,-8.56726 1.71832,-15.27026 1.30402,-24 -0.30634,-6.45465 -9.18891,-9.80359 -7.55713,-17 1.72223,-7.59546 10.5954,-12.02838 17.25311,-14.19366 14.62854,-4.75763 28.66553,-7.45539 44,-8.88117 7.98145,-0.74206 15.99249,-1.40784 23.96063,-2.29938 2.90894,-0.3255 7.77448,-1.57428 10.3125,0.40277 4.42145,3.44416 4.19995,15.83124 4.77704,20.97144 C 718.22742,513.39417 720,532.46814 720,552 M 620,477 v 1 l -44,11 c 9.70874,-7.75848 31.73877,-11.02411 44,-12 m -474,1 1,1 -1,-1 m -5,4 1,1 -1,-1 m -3,2 c -13.46383,12.40125 -36.59424,27.7594 -42,46 h 1 L 123.03935,499.71448 138,484 m 808,6 h 1 v -2 h 1 v 4 c -6.40747,-3.8537 -10.50037,-5.52893 -18,-5 4.27039,-3.25653 14.27954,-2.8866 16,3 m -419,-1 3,-1 -3,1 m -3,0 1,1 -1,-1 m 51,0 v 1 c -25.75116,10.70721 -50.54071,25.41791 -72,43.28552 -9.77658,8.1402 -19.5658,16.34845 -29,24.88428 -4.35605,3.94116 -8.32047,9.86475 -13.42438,12.80243 -4.83526,2.78302 -13.10312,0.76544 -18.57562,1.61804 -15.80905,2.46295 -31.57608,5.54779 -47,9.83411 -12.39761,3.44537 -24.80576,6.42376 -37,10.57867 -6.36487,2.1687 -13.16544,6.09601 -20,4.99695 v -1 l 68,-20 14,-9 37,-18 30,-14 9,-5 c 3.24405,0.48792 6.41928,0.81104 7,-3 8.10657,-1.18829 16.2265,-9.48438 23,-14 14.56299,-9.70868 31.77539,-20.90869 49,-25 m 374.66669,1.66669 -0.33338,0.66662 0.33338,-0.66662 M 959,532 h -1 c 0.0307,-18.49591 -17.75586,-36.58051 -34,-22 9.82251,-5.85248 15.97998,-5.95795 23,4 -3.4566,-2.42499 -7.36823,-7.62817 -12,-7.13348 -17.42218,1.86071 -30.51434,38.45745 -23,52.13348 l -5,-1 -1,18 h -1 l 3,-36 h -1 l -4,28 h -1 l 1,-11 -2,-3 h 1 l 1,2 v -14 h -1 v 3 h -1 l 7,-23 3,-2 -2,1 v -1 l 6,-9 -2,5 h 1 l 11,-17 -6,5 c 15.16565,-28.98895 42.72321,8.54224 40,28 m -5,-39 -1,1 1,-1 m -3,1 3,5 h -1 l -2,-5 m -17,1 1,1 -1,-1 m -8,2 -1,2 1,-2 m 0,5 5,-3 -5,3 m 30,-1 -1,1 1,-1 m 2,1 1,4 h -1 v -4 m -40,5 -3,2 3,-2 m 20,2 v 1 h -4 l 4,-1 m -15,1 -5,8 h 1 l 4,-8 m -5,1 1,1 -1,-1 m -454,2 1,1 -1,-1 m 453,0 -1,2 1,-2 m -455,1 1,1 -1,-1 m 450,2 -1,4 h 1 v -4 m 3,0 -3,8 h 1 l 2,-8 m -461,1 1,1 -1,-1 m -2.33334,1.33337 0.66668,0.33326 -0.66668,-0.33326 M 543,518 l 1,1 -1,-1 m -94.33334,1.33337 0.66668,0.33326 -0.66668,-0.33326 M 141,520 l 1,1 -1,-1 m 302,1 v 1 l 4,-1 h -4 m 473,-1 1,1 -1,-1 m -476,2 -12,5 v 1 l 13,-5 -1,-1 m 475,0 1,1 -1,-1 m -773,1 1,1 -1,-1 m 768,0 v 4 h 1 l -1,-4 m 2,4 1,1 -1,-1 m -4,2 1,1 -1,-1 m 3,0 -1,5 h 1 v -5 m -4,2 1,1 -1,-1 m -814,1 -15,35 3,-2 c 6.350533,21.68701 28.0351,0.96301 35,17 h 1 c -0.70989,-8.995 -3.04188,-26.03931 -14,-28 l -1,-1 1,-2 -4,-1 6,9 -14,-15 4,-12 h -2 m 405,1 -1,2 1,-2 m 408,0 -2,10 h 1 l 1,-10 m 38,0 h 3 c -2.94019,8.76257 -10.7019,28.01868 -20,31 l 17,-31 m -847,1 v 2 h 2 l -2,-2 m 565,11 c 1.59802,-5.52429 5.61554,-6.74982 11,-7 -2.37103,2.43079 -5.06738,2.28833 -7.66284,4.17358 -3.02741,2.19904 -0.53046,5.68573 2.67828,5.36036 6.46552,-0.65558 9.8841,-10.19715 2.94061,-12.93055 C 663.49542,531.66638 652.01257,539.74194 662,545 m 247,-10 1,1 -1,-1 m -814,1 1,1 -1,-1 m 813,1 v 3 h 1 l -1,-3 m -6,9 v 2 h -2 v -2 h 2 m -325,3 1,1 -1,-1 m 374,0 c -2.98688,9.35754 -12.35156,19.49194 -22,22 v -1 l 22,-21 m -858,1 v 4 h -1 l 1,-4 m 497,1 -1,1 1,-1 m 313,0 -1,1 1,-1 m -798,3 3,5 -3,-5 m 503,0 c 8.65845,0.49786 18.74316,-0.16467 25,7 -19.36902,-7.90381 -31.21741,-2.45129 -48,8 l 23,-15 m 113,0 v 6 h -1 l 1,-6 m 207,1 -2,2 v -2 h 2 m -9,1 -3,2 v -1 l 3,-1 m -813,3 4,4 -5,-3 1,-1 m 808,0.33337 c 0.77325,0 0.16022,0.49781 -0.33331,0.33326 L 914,559.33337 M 922,559 v 1 l -2,4 -3,-1 v -2 l 5,-2 m -785,1 -1,1 1,-1 m 498,1 -1,1 1,-1 m -475,2 -1,1 1,-1 m 469,13 v -1 l -7,-4 v -1 c 29.13525,10.66699 49,46.08984 49,76 h -1 l -2,-15 h -1 v 4 l -16,-27 c 7.38257,11.19427 11.90668,23.61523 13,37 h -1 c -4.71649,-31.93677 -30.25427,-65.05737 -64,-68 l 3,-5 13,1 v -1 c -10.0379,-2.35889 -17.3703,-3.12085 -27,1 11.14178,-12.01465 29.21954,-2.07635 41,3 m -10,-8 -1,1 1,-1 m 304,0 c 2.51019,4.19751 2.27545,8.11951 -3,9 l 3,-9 m -810,1 2,3 -2,-3 m 508,0 -1,1 1,-1 m -486,3 1,1 -1,-1 m 481,1 1,1 -1,-1 m 296,1 -1,1 1,-1 m -297,1 1,1 -1,-1 m 293,0 5,2 v 1 l -6,-2 1,-1 M 433,590 400.00385,594.73303 345,603 v -1 c 20.5816,-8.5575 43.07324,-13.25366 65,-17.38892 6.14554,-1.15893 17.55109,-5.12872 23,-1.61108 2.76697,-2.10974 5.66547,-4.39392 9,-5.54626 2.74109,-0.94739 5.34592,-0.55787 8,0.48071 21.97379,8.59814 0.0585,42.19366 -12.52081,22.05011 C 435.55225,596.89893 434.31,593.37659 433,590 m 196,-14 v 1 l 13,13 c -2.63525,-5.99121 -7.01953,-11.21112 -13,-14 m -10,1 3,2 v -1 l -3,-1 m 312,0 c 7.21271,5.18835 14.39569,14.90601 15,24 h 1 v -12 h 2 l -3,20 h -1 c -0.14569,-7.05823 -1.1297,-14.01465 -5.10492,-20 -2.66931,-4.0191 -7.76105,-7.32153 -8.89508,-12 m -2,1 -1,1 1,-1 m -324,1 v 1 h -13 l 13,-1 m 316,0 1,6 h -1 v -6 m -456,1 2,2 v -2 h -2 m 126,0 v 1 h -3 l 3,-1 m -473,1 1,1 -1,-1 m 356,4 3,-3 -3,3 m 12,-3 1,1 -1,-1 m 96,0 -1,1 1,-1 m 310,0 v 1 l -4,1 4,-2 m -398.33334,1.33337 0.66668,0.33326 -0.66668,-0.33326 M 580,583 l -1,1 1,-1 m 71,40 h -1 c -6.42065,-15.41736 -19.5661,-29.33899 -35,-36 l 4,5 c -17.67517,-10.63062 -30.45508,-3.49933 -49,-1 27.0686,-21.86853 73.62354,0.95911 81,32 M 117,584 v 21 h 1 l -1,-21 m 208,0 1,2 -1,-2 m 594,0 c 3.01556,10.0741 3.34351,17.74799 1,28 l -7,8 h -1 c 2.31348,-10.83246 8.0863,-20.59302 6,-32 l -3,1 4,-5 m 38,0 v 10 h 1 v -3 h 1 c -0.14233,17.19312 -8.11786,46.10559 -25,54 l 2,-3 c -7.45734,3.15991 -14.3205,1.72119 -18,-6 11.41736,6.80249 18.82129,4.104 25,-8 -4.5755,4.95325 -8.5719,10.80951 -16,9 v -1 c 14.46936,-1.57153 20.3125,-19.79645 22.38812,-32.00385 C 950.22272,599.08777 948.68481,592.28491 953,589 l -2,20 h 1 l 5,-25 m -73,1 -21,49 h -1 c 3.74597,-16.19171 12.05884,-35.64612 22,-49 m 43,0 5,12 -5,-7 h -1 v 9 h -1 l 2,-14 m -464,1 v 2 l -2,-2 h 2 m 12,0 1,1 -1,-1 m 21,0 1,1 -1,-1 m 118,0 1,1 -1,-1 m -149,1 -1,1 1,-1 m -28,2 c -0.54138,2.53217 -0.60419,4.46936 0.25232,6.99768 C 444.5441,617.52185 469.6059,588.07635 448,588 l 1,4 -12,-3 m -240,1.30017 c 7.01303,-1.0133 18.61885,-1.47693 23.39661,4.91358 7.91725,10.58972 -7.19074,23.24792 -16.39661,24.65197 -7.08482,1.08057 -15.8793,2.79804 -21.8912,-2.28467 C 170.25031,607.5553 186.31874,591.84338 197,590.30017 M 468,590 v 2 h 2 v -2 h -2 m 20,0.33337 c 0.77335,0 0.16022,0.49781 -0.33334,0.33326 L 488,590.33337 M 477,592 v 1 l -4,-2 4,1 m 116,-1 -1,1 1,-1 m 49,0 1,1 -1,-1 m 304,0 -1,1 1,-1 m -325,1 21,22 c -5.62128,-4.13733 -19.35681,-15.4198 -21,-22 m -431,2 v 1 c 4.64474,3.57086 7.93411,7.11517 9,13 h 1 c 3.68576,-6.93787 9.71947,-8.07507 17,-9 -3.91043,-6.86664 -20.07277,-7.04297 -27,-5 m 299,-1 -1,1 1,-1 m 105,0 5,35 h -1 c -2.06818,-8.58765 -7.19458,-26.81531 -4,-35 m 362.33331,2.66663 0.33338,0.66674 -0.33338,-0.66674 M 202,596 l -1,1 1,-1 m 274,1 v 2 h -2 v -2 h 2 m 9,0 -3,3 3,-3 m -300,2 c -13.09256,18.62427 16.49515,26.40552 27.5517,14.58105 2.37245,-2.53723 1.9095,-6.37793 2.4483,-9.58105 -9.26161,0.0828 -12.72691,5.35565 -20,10 1.07425,-7.26331 -5.83559,-18.6759 -11,-8 h -1 l 2,-7 m 285,0 4,6 -3,1 -1,-7 m 10,0 1,3 h -3 l 2,-3 m 165,0 5,9 h 1 l -6,-9 m 310,0 v 3 h 1 l -1,-3 m -489,1 2,6 -2,-6 m 186,0 1,1 -1,-1 m -433,1 -3,3 v 4 h 1 l 2,-7 m 104,0 2,2 -2,-2 m 604,0 v 7 h -1 l 1,-7 m -274,1 1,1 -1,-1 m -75,2 2,33 h -1 l -1,-33 m 376.33331,0.66663 0.33338,0.66674 -0.33338,-0.66674 M 183,606 v 3 h -1 l 1,-3 m 435,0 -1,1 1,-1 m -308,2 -1,1 1,-1 m 643,0 1,1 -1,-1 m -646,1 -1,1 1,-1 m 310,0 4,5 -4,-5 m 326,0 1,2 h -2 l 1,-2 m -320,1 3,5 -3,-5 m 327,0 v 4 h 1 l -1,-4 m 2,0 v 3 h 1 l -1,-3 m -649,1 v 1 h -3 l 3,-1 m 638,1 c -0.46588,10.17194 -8.21216,23.44873 -20,21 l 20,-21 m -637,2 v 1 h 3 l -3,-1 m 606,0 1,5 h -1 v -5 m -267,1 5,10 -5,-10 m 18.33331,0.66663 0.33338,0.66674 -0.33338,-0.66674 M 949,615 l -6,13 h 1 l 5,-11 h 1 v 2 h 1 l -2,-4 m 2,0 1,1 -1,-1 m -324,1 -1,1 1,-1 m -338,5 v 1 l 9,-4 -9,3 m -155,-3 1,1 -1,-1 m 490,0 -1,1 1,-1 m 4,0 1,2 -1,-2 m 34,0 1,4 h 1 l -2,-4 m 249,2 v 3 h -1 l 1,-3 m -281,1 -1,1 1,-1 m 319.33331,0.66663 0.33338,0.66674 -0.33338,-0.66674 M 114,622 v 1 h -6 l 6,-1 m 21,0 1,1 -1,-1 m 152,0 1,1 -1,-1 m -169,1.33337 c 0.77335,0 0.16019,0.49781 -0.33334,0.33326 L 118,623.33337 M 631,623 l 6,4 -1,3 -5,-7 m 33,0 1,1 -1,-1 m -588,1 9,25 2,-1 11,14 9,7 -1,3 c 8.92239,3.3844 5.49438,15.78198 0,21 v 1 c 35.95131,28.64282 88.84323,37.77856 134,41.08875 15.61787,1.14483 33.66147,3.21167 49,-0.84491 23.29514,-6.16083 35.49939,-23.59388 47.20062,-43.24384 5.16068,-8.66638 11.5213,-18.55811 9.79938,-29 8.20145,6.8313 2.10532,18.2832 -1.75308,26 -9.7428,19.4856 -22.72257,39.61487 -44.24692,47.3017 -20.6153,7.36218 -44.64816,5.60663 -66,2.98303 -27.65138,-3.39771 -55.33609,-7.62323 -82,-15.94367 -15.42868,-4.81451 -32.36063,-10.10388 -44.99614,-20.6698 C 91.763031,688.92676 82.837006,663.75024 78.126541,645 76.651451,639.12836 72.14415,629.29431 76,624 m 50,0 v 1 h 8 l -8,-1 m 526,0 -1,1 1,-1 m 296,0 1,1 -1,-1 m -811,1 1,1 -1,-1 m 515.66669,1.66663 -0.33338,0.66674 0.33338,-0.66674 M 947,626 l 1,1 -1,-1 m -316,3.33337 c 0.77338,0 0.16016,0.49781 -0.33331,0.33326 L 631,629.33337 M 666,629 l 1,1 -1,-1 m -30,4 v 1 l -40,20 v -1 l 4,-1 v -1 l -6,2 -2,-9 c 4.73914,-0.95056 7.12402,5.0509 12,4.00159 C 614.80621,645.6759 624.94891,631.72778 636,633 m 307,-1 1,1 -1,-1 m -713.33333,2.33337 0.66666,0.33326 -0.66666,-0.33326 M 558,635 c 1.04468,5.34698 -1.47644,13.21613 -7,15 v -1 l 5,-14 h 2 m 297,0 v 1 h -6 l 6,-1 m -749,1 -1,1 1,-1 m 742,0 v 1 L 797,654.92126 667,703 c 9.02374,-10.33301 33.24744,-13.93079 46,-19 29.13641,-11.58191 58.56677,-22.28833 88,-33.05322 15.02332,-5.49463 30.88092,-13.63019 47,-14.94678 m -740,1 9,5 -10,-4 1,-1 m 765,2 c -2.89417,5.00598 -9.78918,5.92969 -15,7.66663 -13.02271,4.34094 -25.88184,9.18243 -39,13.21685 -34.08081,10.48139 -67.74219,24.08576 -101,36.92743 -16.55286,6.39148 -36.25043,16.62964 -54,18.18909 v -1 L 754,681.30481 873,639 m -813,1 -2,3 2,-3 m 877,0 -1,2 1,-2 m -385.33331,1.66663 -0.33338,0.66674 0.33338,-0.66674 M 591,643 v 1 h -3 l 3,-1 m 56,0 c -5.83832,11.27155 -27.40936,23.89441 -40,24 L 623,658.67981 647,643 m -590.333332,2.66663 -0.333336,0.66674 0.333336,-0.66674 M 100,647 c 25.02527,11.07922 54.21613,15.5918 81,20.42438 51.21599,9.24078 102.98108,14.54132 155,14.57562 v 1 C 282.65695,683 230.5979,677.25568 178,668.43518 152.67892,664.18896 121.6097,660.85449 99,648 l 1,-1 m 439,0 c 9.7644,3.17725 27.24481,13.94116 30,0 3.47443,0.57654 4.42346,1.52551 5,5 l -6,5 8,2 v 1 c -7.47461,2.57532 -21.24518,-6.42108 -29,-8.61108 -2.36212,-0.66712 -9.18732,-1.40747 -8,-4.38892 m 57,0 1,1 -1,-1 m -540,1 v 3 h -1 l 1,-3 m 494,0 -1,1 1,-1 m 50,2 1,1 -1,-1 m -24,5 -1,1 1,-1 m 15,0 v 1 h -3 l 3,-1 m -490,4 4,7 -4,-7 m 486,3 -7,-2 c 3.11749,-1.26318 5.17102,-0.82361 7,2 M 73,660 c 1.956963,8.45496 5.884338,15.36957 11.438271,22 2.857704,3.41162 8.833534,8.05884 8.824844,12.95679 C 93.249718,702.50427 82.81382,700.58014 79,698.00696 69.057846,691.29895 49.063324,661.24438 73,660 m 530,0 -1,1 1,-1 m -23,2 3,4 3,-1 v 1 1 l -2,2 -2,1 h -1 l -1,-8 m 24,1 1,2 h -2 l 1,-2 m -495,1 c 18.2632,6.89008 37.99194,10.22607 57,14.42438 C 219.07729,690.14758 273.69626,697 328,697 v 1 c -20.54138,3.81116 -46.32639,-0.0252 -67,-2.71838 -30.16339,-3.92945 -60.12961,-7.70606 -90,-13.68128 C 150.72418,677.54431 126.43921,674.71606 108,665 l 1,-1 m 203,0 v 1 h -19 l 19,-1 m 267,0 -3,3 1,-3 h 2 m -275,3 v 1 h -15 l 15,-1 m 283,1 -1,1 1,-1 m -20,7 v 1 c -11.98877,-0.008 -24.74133,-1.75244 -36,-6 l 12,1.55017 L 567,675 m 12,-4 1,6 h -1 v -6 m 10,0 -2,3 2,-3 m 9,0 c -2.56238,5.37909 -0.47052,7.5658 5,9 l -3,-6 4,7 c 8.01385,1.68604 16.67419,16.8866 20,24 h 2 l 10,-28 h 1 l -4,39 -22,-24 v -3 l -3,1 c -0.52802,-5.84454 -23.00555,-11.82764 -10,-19 m 6,2 -3,-2 3,2 m -30.33331,-0.33337 -0.33338,0.66674 0.33338,-0.66674 M 585,672 l -1,1 1,-1 m 4.66669,3.66663 -0.33338,0.66674 0.33338,-0.66674 M 110,677 l 1,1 -1,-1 m 460,0 2,4 -2,-4 m -518,2 -1,1 1,-1 m 530,0 -1,1 1,-1 m -16,1 -1,11 1,-11 m -443,1 -1,1 1,-1 m 2,1 c 62.46254,17.59412 128.08441,29 193,29 v 1 C 271.25275,712 225.79173,706.94775 180,697.21069 161.84901,693.35107 140.99379,690.52161 124,683 l 1,-1 m -74,1 -1,1 1,-1 m 10,1 c -1.730785,3.46155 -7.583408,13.64587 -1,12 2.252235,6.638 14.813622,15.88306 11,23 L 85,727.38196 109,720 v 1 c -7.6497,1.81274 -18.152817,10.00317 -26,8.39661 C 73.33136,727.41711 61.772923,715.69116 55.093365,708.91052 52.660854,706.44116 49.282421,702.76184 49.538582,699 49.914673,693.47693 56.831348,687.00037 61,684 m 515,0 c -3.72797,12.66907 -12.60834,27.03412 -20,38 -0.0384,-3.60309 2.18665,-6.78589 3.74152,-10 3.49853,-7.23193 7.60412,-26.51221 16.25848,-28 m 3,0 7,2 -1,10 5,-11 -3,1 v -1 l 4,-1 c 2.4505,13.15161 11.18439,18.10388 18,29 -10.94208,-7.70667 -20.27899,-23.73792 -27,-4 l -1,-2 h -1 l -5,12 h -1 L 580.63269,702.91052 579,684 m -529,3 v 3 h -1 l 1,-3 m 598,0 -7,36 h 1 l 12,-35 h 1 l -7,31 h 1 l 8,-23 h 1 c -5.63116,27.20935 -23.5647,57.22266 -52,65 v -1 l 26,-22 -1,3 h 1 l 8,-15 h -1 c -2.4317,7.61554 -8.41223,10.82617 -13.67517,16.28937 C 620.31439,747.49048 616.76306,753.80255 610,757.08411 571.93921,775.55182 535.27734,744.76782 526,709 c 3.33447,2.52692 3.64093,7.26489 5.3125,11 2.84436,6.35571 6.54889,12.64294 11.01312,18 19.63062,23.5567 54.19995,29.55481 77.67438,8 -16.81061,8.32556 -38.33856,17.0094 -57,6.86035 C 556.12939,749.12378 551.22845,741.74573 545,737 v -1 c 8.89923,3.76801 13.59644,14.09119 23,16.55634 31.54871,8.27056 71.22681,-18.23597 76,-50.55634 h -1 c -0.92786,6.28271 -3.09436,12.79419 -8,17 2.33728,-10.09766 6.62518,-23.76788 13,-32 m 9,0 -1,1 1,-1 m -238,1 -1,1 1,-1 m 190,0 1,1 -1,-1 m -188,1 c 14.40192,8.49487 27.37247,18.46436 39.99924,29.42517 3.57522,3.10352 11.07196,9.20264 10.74536,14.57098 -0.66388,10.91205 -28.107,11.56147 -35.7446,12.57947 -28.06833,3.74127 -56.70505,4.43524 -85,4.42438 -11.15509,-0.004 -27.35034,-0.83405 -35,-10 19.51987,-9.55524 48.60785,-7.4007 70,-10.28241 16.15552,-2.17633 32.8761,-9.37408 49,-9.71759 v 1 l -16,6 v 1 l 44,2 -2,-3 8,2 -49,-39 1,-1 m 239,0 v 3 h -1 l 1,-3 m -611,2 c -0.306824,3.63373 -1.600147,7.4165 -0.423615,11 3.593346,10.9447 24.938805,29.02136 36.423615,30.9259 9.687599,1.60645 19.30991,-3.95953 29,-2.625 14.38943,1.98181 28.95503,6.89514 43,10.58338 42.43156,11.14258 86.22456,13.36474 129,22.11957 9.70325,1.98596 12.34769,9.20404 20.00076,14.29321 4.78571,3.18243 11.45047,3.00513 16.99924,3.5332 29.35129,2.79315 59.61252,1.49591 89,0.20911 14.90903,-0.6529 30.17432,0.43011 45,-1.32489 19.30582,-2.28534 37.61417,-10.1825 57,-11.71448 v 1 c -18.06955,3.72955 -35.64975,9.54224 -54,11.71448 -20.51392,2.4284 -41.42053,0.96576 -62,2.375 -28.44034,1.94763 -59.75461,3.16089 -88,-1.30323 -10.09906,-1.59606 -12.7468,-14.09362 -23,-16.33251 -42.29512,-9.23572 -85.80927,-11.38135 -128,-21.92908 -14.77449,-3.69361 -30.87578,-10.17664 -46,-11.57019 -9.66737,-0.89075 -19.4216,5.18445 -29,3.32251 -6.201385,-1.20545 -11.169876,-6.18836 -16,-9.92743 C 58.204369,717.7666 38.503841,705.03149 49,691 m 6,3 1,1 -1,-1 m 481,0 v 1 c -7.62329,2.59583 -15.94916,6.23718 -21.56097,12.17358 -16.4599,17.41211 -21.34919,48.12976 -43.43903,60.17749 -9.23221,5.03522 -19.04987,3.76685 -29,5.07331 -3.90048,0.51214 -9.18967,1.79181 -12,-1.42438 l 2,-1 3,2 7,-3 h 1 l 2,2 c 2.4549,-2.11658 7.69131,-0.79028 11.00385,-1.29706 6.52276,-0.99792 12.87823,-3.8952 17.9815,-8.08185 C 491.21802,747.48376 498.82339,722.49915 512,705 l -3,1 c 6.38367,-8.8493 16.59442,-11.75635 27,-12 m -24,11 18,-9 c -6.47815,-1.36017 -14.32422,4.05243 -18,9 m 38,-8 -2,2 v -2 h 2 m 94,1 v 4 h 1 l -1,-4 m 219,5 v 4 c 12.07666,3.91321 -0.3595,22.37701 -7,26 l 2,2 h -3 l -12,14 h -4 l 2,4 c -7.07678,3.34399 -19.12592,7.9436 -23,15 l -3,-1 -22,15 -15,5 2,3 -2,-2 h -5 l 1,4 -4,-1 1,2 -16,8 h -7 c -0.84082,1.79822 -1.56909,4.10754 -3,2 l -8,6 -38,10 v -2 l -27,5 -6,1 c -0.30469,-3.95605 -1.23236,-5.6156 -5,-7 v 1 h 2 c -6.40594,2.24158 -12.31189,-7.6416 -12.96448,-13.03937 -1.75531,-14.51867 -1.13269,-20.99255 10.05475,-31.88501 16.60321,-16.16546 39.82398,-23.4649 60.90973,-31.40045 28.53644,-10.73962 56.61157,-23.36462 86,-31.87964 17.60327,-5.10034 38.22528,-12.10498 56,-5.79553 m -706,-1 -1,1 1,-1 m 674,0.33337 0.33331,0.33326 c -0.49353,0.16455 -1.10663,-0.33326 -0.33331,-0.33326 M 159,703 c 29.45276,9.41766 63.9953,17.35992 95,18 v 1 c -31.18877,-0.0206 -66.45938,-8.39124 -96,-18 l 1,-1 m 370,0 19,29 c -7.05469,-5.68909 -19.88873,-19.15295 -19,-29 m 81,11 -1,1 1,-1 m 36,4 -6,14 8,-11 v -1 l -2,-2 m -32,1 7,8 -7,-8 m 8,0 -3,3 1,-3 h 2 m -361,3 v 1 h -5 l 5,-1 m 9,1 v 1 h -3 l 3,-1 m 285,0 -1,1 1,-1 m 85,0 v 3 h 1 l -1,-3 m -34,1 -15,11 15,-11 m -67,1 1,2 -1,-2 m 2,3 3,5 -3,-5 m 76,1 c -13.94592,21.06897 -31.12689,19.06024 -53,19 l 1,-4 c 11.57269,2.75525 23.84845,-1.76935 34,-7.3125 5.85406,-3.19653 10.95325,-9.5426 18,-7.6875 m 7,0 v 1 l -6,3 6,-4 m -34,6 -1,1 1,-1 m 25,0 -2,2 2,-2 m 242,3 -1,1 1,-1 m -227,3 -3,5 3,-5 m -9.66669,3.66663 0.33338,0.66674 -0.33338,-0.66674 M 834,751 v 1 l 4,1 -4,-2 m -4,4 v 2 h 2 v -2 h -2 m -258,6 -1,1 1,-1 m 32,0 v 1 c -10.48126,2.94543 -19.35913,2.34479 -30,1 l 30,-2 m -292,5 -1,1 1,-1 m -13,1 c 7.27313,7.11743 13.84207,9.97198 24,10 v 1 c -8.47849,-9.2e-4 -21.51978,-0.7699 -24,-11 m 132,0 -1,1 1,-1 m -126,1 8,5 v 1 c -3.67715,-0.74219 -7.03433,-2.15295 -8,-6 m 6,1 -1,1 1,-1 m 2,1 -1,1 1,-1 m 2,0 -1,1 1,-1 m 7,0 -1,1 1,-1 m 24,0 -1,1 1,-1 m 17,0 -1,1 1,-1 m 19,0 -1,1 1,-1 m 26,0 -1,1 1,-1 m 3,0 -1,1 1,-1 m 2,0 -1,1 1,-1 m 7,0 -1,1 1,-1 m 9,0 v 4 l -4,-3 4,-1 m -50,1 -1,1 1,-1 m 36,0 -1,1 1,-1 m 2,0 -1,1 1,-1 m -93,1 -1,1 1,-1 m 30,0 -1,1 1,-1 m 7,0 -1,1 1,-1 m 2.66666,0.66669 -0.33332,0.66662 0.33332,-0.66662 M 367,772 l -1,1 1,-1 m 10,0 -1,1 1,-1 m 9,0 -1,1 1,-1 m 26,0 -1,1 1,-1 m 10,0 v 2 h -2 l 2,-2 m 1.66666,0.66669 -0.33332,0.66662 0.33332,-0.66662 M 333,773 l -1,1 1,-1 m 86,0 -1,1 1,-1 m -49.33334,1.66669 -0.33332,0.66662 0.33332,-0.66662 M 408,774 l -1,1 1,-1 m 2,0 -1,1 1,-1 m 6,0 -1,1 1,-1 m -78,1 -1,1 1,-1 m 9,0 -1,1 1,-1 m 16,0 c 4.37408,4.12946 10.31558,3 16,3 h 35 v 1 h -90 v -1 h 39 v -3 m 13,0 1,2 -1,-2 m 3.66666,0.66669 -0.33332,0.66662 0.33332,-0.66662 M 383,775 l -1,1 1,-1 m 3,0 -1,1 1,-1 m 7,0 -1,1 1,-1 m 4,0 -1,1 1,-1 m 4,0.33331 c 0.77338,0 0.16019,0.49787 -0.33334,0.33338 L 401,775.33331 M 404,775 l -1,1 1,-1 m 63,0 -1,1 1,-1 m -106,1 -1,1 1,-1 m 83,0.33331 c 0.77344,0 0.16016,0.49787 -0.33334,0.33338 L 444,776.33331 M 460,776 v 1 h -8 l 8,-1 m 340,0 -1,1 1,-1 m -363,1 v 1 h -19 l 19,-1 m 213,45 -4,-1 -2,8 c -5.8761,-7.00525 -7.96637,-16.31018 -14.3009,-22.81482 C 621.14178,797.39801 608.26569,797.09277 597,795 c 18.9093,-7.93463 44.65204,11.26831 53,27 m -18,7 C 613.28687,826.27972 604.41309,794.27576 581.83099,809.85107 579.10083,811.73413 576.68298,813.14233 575,816 l -8,2 c -1.26434,-8.56482 13.37659,-13.51221 20,-15.64124 16.45587,-5.28949 43.99139,7.99018 45,26.64124 m 14,-19 v 2 h -2 v -2 h 2 m 6,1 2,5 v 1 c -3.44269,-1.15149 -3.96881,-2.96301 -2,-6 m 51,4 -1,2 h 2 l -1,-2 m -39,6 v 2 l -2,-2 z"
       id="path1" />
  </g>
</svg>
